<?xml version="1.0" encoding="UTF-8" standalone="no"?>
<svg
   width="64"
   height="24"
   viewBox="0 0 64 24"
   fill="none"
   version="1.1"
   id="svg469"
   sodipodi:docname="IMAGE-1.svg"
   inkscape:version="1.2.1 (9c6d41e410, 2022-07-14)"
   xmlns:inkscape="http://www.inkscape.org/namespaces/inkscape"
   xmlns:sodipodi="http://sodipodi.sourceforge.net/DTD/sodipodi-0.dtd"
   xmlns="http://www.w3.org/2000/svg"
   xmlns:svg="http://www.w3.org/2000/svg">
  <defs
     id="defs473" />
  <sodipodi:namedview
     id="namedview471"
     pagecolor="#505050"
     bordercolor="#eeeeee"
     borderopacity="1"
     inkscape:showpageshadow="0"
     inkscape:pageopacity="0"
     inkscape:pagecheckerboard="0"
     inkscape:deskcolor="#505050"
     showgrid="false"
     inkscape:zoom="25.171875"
     inkscape:cx="31.980137"
     inkscape:cy="12.017381"
     inkscape:window-width="1920"
     inkscape:window-height="1001"
     inkscape:window-x="-9"
     inkscape:window-y="-9"
     inkscape:window-maximized="1"
     inkscape:current-layer="svg469" />
  <path
     style="color:#000000;fill:#4543e8;fill-opacity:0.25;stroke-linecap:round;stroke-linejoin:round;-inkscape-stroke:none"
     d="m 9,5 a 1,1 0 0 0 -0.7070312,0.2929687 1,1 0 0 0 0,1.4140625 L 13.585938,12 8.2929688,17.292969 a 1,1 0 0 0 0,1.414062 1,1 0 0 0 1.4140625,0 l 5.9999997,-6 a 1.0001,1.0001 0 0 0 0,-1.414062 L 9.7070313,5.2929687 A 1,1 0 0 0 9,5 Z"
     id="path463" />
  <path
     style="color:#000000;fill:#4543e8;fill-opacity:0.5;stroke-linecap:round;stroke-linejoin:round;-inkscape-stroke:none"
     d="m 28.292969,5.2929687 a 1,1 0 0 0 0,1.4140625 L 33.585937,12 28.292969,17.292969 a 1,1 0 0 0 0,1.414062 1,1 0 0 0 1.414062,0 l 6,-6 a 1.0001,1.0001 0 0 0 0,-1.414062 l -6,-6.0000003 a 1,1 0 0 0 -1.414062,0 z"
     id="path465" />
  <path
     style="color:#000000;fill:#4543e8;fill-opacity:0.75;stroke-linecap:round;stroke-linejoin:round;-inkscape-stroke:none"
     d="m 48.292969,5.2929687 a 1,1 0 0 0 0,1.4140625 L 53.585937,12 48.292969,17.292969 a 1,1 0 0 0 0,1.414062 1,1 0 0 0 1.414062,0 l 6,-6 a 1.0001,1.0001 0 0 0 0,-1.414062 l -6,-6.0000003 a 1,1 0 0 0 -1.414062,0 z"
     id="path467" />
</svg>
