<?xml version="1.0" encoding="UTF-8" standalone="no"?>
<svg
   width="56"
   height="56"
   viewBox="0 0 56 56"
   fill="none"
   version="1.1"
   id="svg918"
   sodipodi:docname="IMAGE-7.svg"
   inkscape:version="1.2.1 (9c6d41e410, 2022-07-14)"
   xmlns:inkscape="http://www.inkscape.org/namespaces/inkscape"
   xmlns:sodipodi="http://sodipodi.sourceforge.net/DTD/sodipodi-0.dtd"
   xmlns="http://www.w3.org/2000/svg"
   xmlns:svg="http://www.w3.org/2000/svg">
  <defs
     id="defs922" />
  <sodipodi:namedview
     id="namedview920"
     pagecolor="#505050"
     bordercolor="#eeeeee"
     borderopacity="1"
     inkscape:showpageshadow="0"
     inkscape:pageopacity="0"
     inkscape:pagecheckerboard="0"
     inkscape:deskcolor="#505050"
     showgrid="false"
     inkscape:zoom="14.535714"
     inkscape:cx="28"
     inkscape:cy="28.034398"
     inkscape:window-width="1920"
     inkscape:window-height="1001"
     inkscape:window-x="-9"
     inkscape:window-y="-9"
     inkscape:window-maximized="1"
     inkscape:current-layer="svg918" />
  <path
     style="color:#000000;fill:#d8d8eb;stroke-linecap:round;stroke-linejoin:round;-inkscape-stroke:none"
     d="M 9.3339844,31.166016 C 7.2346394,31.166016 5.5,32.900663 5.5,35 v 4.666016 C 5.5,41.765352 7.2346394,43.5 9.3339844,43.5 H 14 c 2.09936,0 3.833984,-1.734702 3.833984,-3.833984 V 35 c 0,-2.099282 -1.734624,-3.833984 -3.833984,-3.833984 z m 0,3 H 14 c 0.478038,0 0.833984,0.355869 0.833984,0.833984 v 4.666016 C 14.833984,40.144131 14.478038,40.5 14,40.5 H 9.3339844 C 8.8560119,40.5 8.5,40.144077 8.5,39.666016 V 35 c 0,-0.478061 0.3560119,-0.833984 0.8339844,-0.833984 z"
     id="path900" />
  <path
     style="color:#000000;fill:#d8d8eb;stroke-linecap:round;stroke-linejoin:round;-inkscape-stroke:none"
     d="m 42,31.166016 c -2.099323,0 -3.833984,1.734624 -3.833984,3.833984 v 4.666016 C 38.166016,41.765375 39.900677,43.5 42,43.5 h 4.666016 C 48.765375,43.5 50.5,41.765298 50.5,39.666016 V 35 c 0,-2.099282 -1.734625,-3.833984 -3.833984,-3.833984 z m 0,3 h 4.666016 C 47.144053,34.166016 47.5,34.521885 47.5,35 v 4.666016 C 47.5,40.144131 47.144053,40.5 46.666016,40.5 H 42 c -0.477875,0 -0.833984,-0.355947 -0.833984,-0.833984 V 35 c 0,-0.478038 0.356109,-0.833984 0.833984,-0.833984 z"
     id="path902" />
  <path
     style="color:#000000;fill:#d8d8eb;stroke-linecap:round;stroke-linejoin:round;-inkscape-stroke:none"
     d="m 25.667969,12.5 c -2.099323,0 -3.833985,1.734662 -3.833985,3.833984 V 21 c 0,2.09936 1.73474,3.833984 3.833985,3.833984 h 4.666015 c 2.099245,0 3.833985,-1.734624 3.833985,-3.833984 V 16.333984 C 34.167969,14.234662 32.433307,12.5 30.333984,12.5 Z m 0,3 h 4.666015 c 0.477875,0 0.833985,0.35611 0.833985,0.833984 V 21 c 0,0.478038 -0.356032,0.833984 -0.833985,0.833984 h -4.666015 c -0.477953,0 -0.833985,-0.355946 -0.833985,-0.833984 v -4.666016 c 0,-0.477874 0.35611,-0.833984 0.833985,-0.833984 z"
     id="path904" />
  <path
     style="color:#000000;fill:#d8d8eb;stroke-linecap:round;stroke-linejoin:round;-inkscape-stroke:none"
     d="m 23.085937,18.353516 c -3.436238,0.572023 -6.580601,2.285688 -8.923828,4.863281 -2.343292,2.577655 -3.749187,5.870636 -3.992187,9.345703 a 1.5,1.5 0 0 0 1.390625,1.601562 1.5,1.5 0 0 0 1.601562,-1.392578 c 0.196,-2.802926 1.3306,-5.457969 3.220703,-7.537109 1.88997,-2.079002 4.423758,-3.4605 7.195313,-3.921875 A 1.5,1.5 0 0 0 24.8125,19.587891 1.5,1.5 0 0 0 23.085937,18.353516 Z"
     id="path906" />
  <path
     style="color:#000000;fill:#d8d8eb;stroke-linecap:round;stroke-linejoin:round;-inkscape-stroke:none"
     d="m 32.912109,18.353516 a 1.5,1.5 0 0 0 -1.726562,1.234375 1.5,1.5 0 0 0 1.234375,1.724609 c 2.771555,0.461375 5.305343,1.842873 7.195312,3.921875 1.890104,2.07914 3.024704,4.734183 3.220703,7.537109 A 1.5,1.5 0 0 0 44.4375,34.164062 1.5,1.5 0 0 0 45.828125,32.5625 c -0.243,-3.475067 -1.648895,-6.768048 -3.992188,-9.345703 -2.343226,-2.577593 -5.487589,-4.291258 -8.923828,-4.863281 z"
     id="path908" />
  <path
     style="color:#000000;fill:#d8d8eb;stroke-linecap:round;stroke-linejoin:round;-inkscape-stroke:none"
     d="m 9.3339844,17.166016 a 1.5,1.5 0 0 0 -1.5,1.5 1.5,1.5 0 0 0 1.5,1.5 H 23.333984 a 1.5,1.5 0 0 0 1.5,-1.5 1.5,1.5 0 0 0 -1.5,-1.5 z"
     id="path910" />
  <path
     style="color:#000000;fill:#d8d8eb;stroke-linecap:round;stroke-linejoin:round;-inkscape-stroke:none"
     d="m 32.666016,17.166016 a 1.5,1.5 0 0 0 -1.5,1.5 1.5,1.5 0 0 0 1.5,1.5 h 14 a 1.5,1.5 0 0 0 1.5,-1.5 1.5,1.5 0 0 0 -1.5,-1.5 z"
     id="path912" />
  <path
     style="color:#000000;fill:#d8d8eb;stroke-linecap:round;stroke-linejoin:round;-inkscape-stroke:none"
     d="m 7,14.833984 c -2.0992711,0 -3.8339844,1.732703 -3.8339844,3.832032 C 3.1660156,20.765307 4.9006513,22.5 7,22.5 c 2.099345,0 3.832031,-1.734685 3.832031,-3.833984 0,-2.099337 -1.7327636,-3.832032 -3.832031,-3.832032 z m 0,3 c 0.4780501,0 0.8320313,0.353971 0.8320312,0.832032 C 7.8320312,19.143914 7.4779725,19.5 7,19.5 6.5220113,19.5 6.1660156,19.143921 6.1660156,18.666016 6.1660156,18.187947 6.5219337,17.833984 7,17.833984 Z"
     id="path914" />
  <path
     style="color:#000000;fill:#d8d8eb;stroke-linecap:round;stroke-linejoin:round;-inkscape-stroke:none"
     d="m 49,14.833984 c -2.099245,0 -3.833984,1.732672 -3.833984,3.832032 0,2.099322 1.734661,3.833984 3.833984,3.833984 2.09936,0 3.832031,-1.734662 3.832031,-3.833984 0,-2.09936 -1.732749,-3.832032 -3.832031,-3.832032 z m 0,3 c 0.478115,0 0.832031,0.353994 0.832031,0.832032 C 49.832031,19.14389 49.478038,19.5 49,19.5 c -0.477875,0 -0.833984,-0.35611 -0.833984,-0.833984 0,-0.478038 0.356032,-0.832032 0.833984,-0.832032 z"
     id="path916" />
</svg>
