<?xml version="1.0" encoding="UTF-8" standalone="no"?>
<svg
   width="56"
   height="56"
   viewBox="0 0 56 56"
   fill="none"
   version="1.1"
   id="svg658"
   sodipodi:docname="IMAGE-3.svg"
   inkscape:version="1.2.1 (9c6d41e410, 2022-07-14)"
   xmlns:inkscape="http://www.inkscape.org/namespaces/inkscape"
   xmlns:sodipodi="http://sodipodi.sourceforge.net/DTD/sodipodi-0.dtd"
   xmlns="http://www.w3.org/2000/svg"
   xmlns:svg="http://www.w3.org/2000/svg">
  <defs
     id="defs662" />
  <sodipodi:namedview
     id="namedview660"
     pagecolor="#505050"
     bordercolor="#eeeeee"
     borderopacity="1"
     inkscape:showpageshadow="0"
     inkscape:pageopacity="0"
     inkscape:pagecheckerboard="0"
     inkscape:deskcolor="#505050"
     showgrid="false"
     inkscape:zoom="14.535714"
     inkscape:cx="28"
     inkscape:cy="28.034398"
     inkscape:window-width="1920"
     inkscape:window-height="1001"
     inkscape:window-x="-9"
     inkscape:window-y="-9"
     inkscape:window-maximized="1"
     inkscape:current-layer="svg658" />
  <path
     style="color:#000000;fill:#d8d8eb;stroke-linecap:round;stroke-linejoin:round;-inkscape-stroke:none"
     d="M 28,5.5214844 A 1.50015,1.50015 0 0 0 26.5,7 v 2.3339844 a 1.50015,1.50015 0 0 0 3,0 V 7 A 1.50015,1.50015 0 0 0 28,5.5214844 Z m 15.3125,6.1132816 a 1.50015,1.50015 0 0 0 -1.439453,0.371093 l -1.632813,1.632813 a 1.50015,1.50015 0 0 0 2.121094,2.121094 l 1.632813,-1.632813 A 1.50015,1.50015 0 0 0 43.3125,11.634766 Z m -29.185547,0.371093 a 1.50015,1.50015 0 0 0 -2.121094,2.121094 l 1.632813,1.632813 a 1.50015,1.50015 0 0 0 1.441406,0.373046 1.50015,1.50015 0 0 0 0.679688,-2.49414 z M 7,26.5 a 1.50015,1.50015 0 0 0 0,3 H 9.3339844 A 1.50015,1.50015 0 0 0 10.615234,28.744141 1.50015,1.50015 0 0 0 9.3339844,26.5 Z m 39.666016,0 A 1.50015,1.50015 0 0 0 45.1875,28 1.50015,1.50015 0 0 0 46.666016,29.5 H 49 A 1.50015,1.50015 0 0 0 50.28125,27.255859 1.50015,1.50015 0 0 0 49,26.5 Z"
     id="path652" />
  <path
     style="color:#000000;fill:#d8d8eb;stroke-linecap:round;stroke-linejoin:round;-inkscape-stroke:none"
     d="m 28,14.833984 c -2.763313,0 -5.455542,0.868732 -7.697266,2.484375 -2.241602,1.615751 -3.919169,3.896068 -4.792968,6.517578 -0.873787,2.621475 -0.900091,5.45231 -0.07617,8.089844 0.823902,2.637593 2.457232,4.949426 4.667968,6.607422 l -0.15625,-0.132812 c 0.743632,0.73604 1.303793,1.636069 1.634766,2.628906 0.330888,0.992825 0.42277,2.048704 0.269531,3.083984 a 1.50015,1.50015 0 0 0 -0.01563,0.220703 c 0,1.6349 0.650701,3.203304 1.806641,4.359375 C 24.796744,49.849478 26.365113,50.5 28,50.5 c 1.634819,0 3.205209,-0.650522 4.361328,-1.806641 1.156119,-1.156118 1.806641,-2.724556 1.806641,-4.359375 a 1.50015,1.50015 0 0 0 -0.01758,-0.220703 c -0.153239,-1.03528 -0.05947,-2.091217 0.271484,-3.083984 0.330864,-0.992757 0.891072,-1.892886 1.634766,-2.628906 l -0.15625,0.132812 c 2.210621,-1.657994 3.844066,-3.969829 4.667968,-6.607422 0.823919,-2.637534 0.797616,-5.468369 -0.07617,-8.089844 C 39.618388,21.214427 37.940821,18.93411 35.699219,17.318359 33.457495,15.702716 30.763226,14.833984 28,14.833984 Z m 0,3 c 2.133969,0 4.21404,0.670215 5.945312,1.917969 1.731194,1.247847 3.026373,3.008718 3.701172,5.033203 0.674812,2.024522 0.694874,4.209233 0.05859,6.246094 -0.636296,2.037003 -1.896341,3.82116 -3.603516,5.101562 a 1.50015,1.50015 0 0 0 -0.15625,0.134766 c -1.078504,1.067378 -1.889405,2.373059 -2.36914,3.8125 -0.47985,1.43943 -0.614739,2.971739 -0.392578,4.472656 l -0.01563,-0.21875 c 0,0.840379 -0.333455,1.644002 -0.927735,2.238282 C 29.645955,47.166545 28.840379,47.5 28,47.5 c -0.840511,0 -1.644002,-0.333455 -2.238281,-0.927734 -0.594259,-0.594327 -0.927735,-1.397984 -0.927735,-2.238282 l -0.01563,0.21875 c 0.222161,-1.500917 0.08713,-3.033284 -0.392578,-4.472656 -0.479826,-1.439361 -1.290774,-2.745142 -2.36914,-3.8125 a 1.50015,1.50015 0 0 0 -0.15625,-0.134766 c -1.707259,-1.2804 -2.96722,-3.064559 -3.603516,-5.101562 -0.636279,-2.036861 -0.616218,-4.221572 0.05859,-6.246094 0.674799,-2.024485 1.969978,-3.785356 3.701172,-5.033203 C 23.787913,18.504199 25.865918,17.833984 28,17.833984 Z"
     id="path654" />
  <path
     style="color:#000000;fill:#d8d8eb;stroke-linecap:round;stroke-linejoin:round;-inkscape-stroke:none"
     d="m 22.630859,38.166016 a 1.5,1.5 0 0 0 -1.5,1.5 1.5,1.5 0 0 0 1.5,1.5 h 10.732422 a 1.5,1.5 0 0 0 1.5,-1.5 1.5,1.5 0 0 0 -1.5,-1.5 z"
     id="path656" />
</svg>
