<?xml version="1.0" encoding="UTF-8" standalone="no"?>
<svg
   width="56"
   height="56"
   viewBox="0 0 56 56"
   fill="none"
   version="1.1"
   id="svg712"
   sodipodi:docname="IMAGE-4.svg"
   inkscape:version="1.2.1 (9c6d41e410, 2022-07-14)"
   xmlns:inkscape="http://www.inkscape.org/namespaces/inkscape"
   xmlns:sodipodi="http://sodipodi.sourceforge.net/DTD/sodipodi-0.dtd"
   xmlns="http://www.w3.org/2000/svg"
   xmlns:svg="http://www.w3.org/2000/svg">
  <defs
     id="defs716" />
  <sodipodi:namedview
     id="namedview714"
     pagecolor="#505050"
     bordercolor="#eeeeee"
     borderopacity="1"
     inkscape:showpageshadow="0"
     inkscape:pageopacity="0"
     inkscape:pagecheckerboard="0"
     inkscape:deskcolor="#505050"
     showgrid="false"
     inkscape:zoom="14.535714"
     inkscape:cx="28"
     inkscape:cy="28.034398"
     inkscape:window-width="1920"
     inkscape:window-height="1001"
     inkscape:window-x="-9"
     inkscape:window-y="-9"
     inkscape:window-maximized="1"
     inkscape:current-layer="svg712" />
  <path
     style="color:#000000;fill:#d8d8eb;stroke-linecap:round;stroke-linejoin:round;-inkscape-stroke:none"
     d="m 15.273438,17.605469 -9.3339849,9.333984 a 1.50015,1.50015 0 0 0 0,2.121094 l 9.3339849,9.333984 a 1.5,1.5 0 0 0 2.121093,0 1.5,1.5 0 0 0 0,-2.121094 L 9.1210938,28 17.394531,19.726562 a 1.5,1.5 0 0 0 0,-2.121093 1.5,1.5 0 0 0 -2.121093,0 z"
     id="path706" />
  <path
     style="color:#000000;fill:#d8d8eb;stroke-linecap:round;stroke-linejoin:round;-inkscape-stroke:none"
     d="m 38.605469,17.605469 a 1.5,1.5 0 0 0 0,2.121093 L 46.878906,28 38.605469,36.273437 a 1.5,1.5 0 0 0 0,2.121094 1.5,1.5 0 0 0 2.121093,0 l 9.333985,-9.333984 a 1.50015,1.50015 0 0 0 0,-2.121094 l -9.333985,-9.333984 a 1.5,1.5 0 0 0 -2.121093,0 z"
     id="path708" />
  <path
     style="color:#000000;fill:#d8d8eb;stroke-linecap:round;stroke-linejoin:round;-inkscape-stroke:none"
     d="M 33.03125,7.8769531 A 1.5,1.5 0 0 0 31.212891,8.96875 l -9.333985,37.333984 a 1.5,1.5 0 0 0 1.091797,1.81836 1.5,1.5 0 0 0 1.818359,-1.091797 L 34.123047,9.6972656 A 1.5,1.5 0 0 0 33.03125,7.8769531 Z"
     id="path710" />
</svg>
